<svg xmlns="http://www.w3.org/2000/svg" viewBox="0 0 120 20"><path d="M11 10 C 45 9.75, 80 9.35, 118 9.2 L118 10.8 C 80 10.65, 45 10.25, 11 10 Z M1.5 10 L6 7.6 L10.5 10 L6 12.4 Z M117.5 9.15 C 111 6.4, 105.5 4.4, 101 5.1 C 97.6 5.6, 97.0 8.4, 99.6 9.0 C 98.2 7.4, 99.4 6.1, 101.4 6.2 C 105.6 6.4, 111.4 8.1, 117.5 10.1 Z M117.5 10.85 C 111 13.6, 105.5 15.6, 101 14.9 C 97.6 14.4, 97.0 11.6, 99.6 11.0 C 98.2 12.6, 99.4 13.9, 101.4 13.8 C 105.6 13.6, 111.4 11.9, 117.5 9.9 Z M56 9.4 C 68.6 5.4, 81.92 5.4, 92 8.280000000000001 C 81.2 6.45, 68.24 6.45, 56 8.875 Z M56 10.6 C 68.6 14.6, 81.92 14.6, 92 11.719999999999999 C 81.2 13.549999999999999, 68.24 13.549999999999999, 56 11.125 Z M24 9.7 C 32.05 7.799999999999999, 40.56 7.799999999999999, 47 9.168 C 40.099999999999994 8.299999999999999, 31.82 8.299999999999999, 24 9.45 Z M24 10.3 C 32.05 12.200000000000001, 40.56 12.200000000000001, 47 10.832 C 40.099999999999994 11.700000000000001, 31.82 11.700000000000001, 24 10.55 Z"/></svg>